<?xml version="1.0" encoding="utf-8"?>
<!-- Generator: Adobe Illustrator 27.5.0, SVG Export Plug-In . SVG Version: 6.00 Build 0)  -->
<svg version="1.1" xmlns="http://www.w3.org/2000/svg" xmlns:xlink="http://www.w3.org/1999/xlink" x="0px" y="0px"
	 viewBox="0 0 2200 2200" style="enable-background:new 0 0 2200 2200;" xml:space="preserve">
<g id="background">
	<rect style="fill:#FFFFFF;" width="2200" height="2200"/>
</g>
<g id="Objects">
	<g>
		<path d="M938.329,352.746c-37.982-37.982-82.215-67.804-131.472-88.638c-51.003-21.573-105.173-32.511-161.006-32.511
			c-55.833,0-110.003,10.938-161.006,32.511c-49.256,20.833-93.489,50.656-131.471,88.638
			c-37.982,37.982-67.804,82.215-88.637,131.471c-21.573,51.004-32.511,105.174-32.511,161.007
			c0,55.833,10.938,110.003,32.511,161.006c20.833,49.256,50.655,93.49,88.637,131.471c37.982,37.982,82.215,67.804,131.471,88.638
			c51.004,21.573,105.173,32.511,161.006,32.511c55.833,0,110.003-10.938,161.006-32.511c49.256-20.833,93.49-50.656,131.472-88.638
			c37.982-37.982,67.804-82.215,88.638-131.471c21.572-51.003,32.511-105.173,32.511-161.006
			c0-55.833-10.938-110.003-32.511-161.007C1006.133,434.961,976.311,390.728,938.329,352.746z M1000.26,794.934
			c-19.372,45.799-47.107,86.935-82.435,122.263c-35.328,35.328-76.464,63.064-122.264,82.435
			c-47.409,20.053-97.779,30.22-149.71,30.22s-102.3-10.167-149.71-30.22c-45.799-19.371-86.934-47.107-122.263-82.435
			c-35.328-35.328-63.063-76.464-82.434-122.263c-20.053-47.41-30.22-97.779-30.22-149.71c0-51.931,10.167-102.3,30.22-149.71
			c19.371-45.8,47.107-86.935,82.434-122.263c35.328-35.328,76.463-63.064,122.263-82.435c47.41-20.053,97.779-30.22,149.71-30.22
			s102.301,10.167,149.71,30.22c45.8,19.371,86.935,47.107,122.264,82.435s63.064,76.463,82.435,122.263
			c20.052,47.41,30.22,97.779,30.22,149.71S1020.312,747.524,1000.26,794.934z"/>
		<path d="M761.222,656.748l-81.07-18.55c-2.259-11.086-9.762-20.259-19.801-24.835V412.257c0-8.008-6.492-14.499-14.499-14.499
			c-8.008,0-14.499,6.492-14.499,14.499v201.107c-12.095,5.513-20.506,17.7-20.506,31.86c0,19.333,15.673,35.006,35.006,35.006
			c11.344,0,21.423-5.401,27.82-13.766l81.083,18.553c1.088,0.249,2.176,0.369,3.247,0.369c6.611,0,12.584-4.551,14.121-11.268
			C773.908,666.31,769.027,658.534,761.222,656.748z"/>
	</g>
	<g>
		<path d="M1261.671,937.702c37.983,37.982,82.215,67.804,131.472,88.638c51.003,21.573,105.173,32.511,161.006,32.511
			s110.004-10.938,161.006-32.511c49.256-20.833,93.489-50.656,131.472-88.638c37.982-37.982,67.803-82.215,88.637-131.471
			c21.572-51.003,32.511-105.173,32.511-161.006c0-55.833-10.939-110.003-32.511-161.007
			c-20.834-49.256-50.655-93.489-88.637-131.471c-37.983-37.982-82.215-67.804-131.472-88.638
			c-51.003-21.573-105.173-32.511-161.006-32.511s-110.004,10.938-161.006,32.511c-49.256,20.833-93.489,50.656-131.472,88.638
			c-37.982,37.982-67.803,82.215-88.637,131.471c-21.572,51.004-32.511,105.174-32.511,161.007
			c0,55.833,10.938,110.003,32.511,161.006C1193.867,855.486,1223.689,899.72,1261.671,937.702z M1199.741,495.514
			c19.372-45.8,47.107-86.935,82.435-122.263c35.327-35.328,76.463-63.064,122.263-82.435c47.409-20.053,97.779-30.22,149.71-30.22
			c51.931,0,102.301,10.167,149.71,30.22c45.8,19.371,86.935,47.107,122.263,82.435c35.328,35.328,63.064,76.463,82.435,122.263
			c20.052,47.409,30.22,97.779,30.22,149.71c0,51.931-10.167,102.3-30.22,149.71c-19.372,45.799-47.107,86.935-82.435,122.263
			c-35.327,35.328-76.463,63.064-122.263,82.435c-47.409,20.053-97.779,30.22-149.71,30.22c-51.931,0-102.301-10.167-149.71-30.22
			c-45.8-19.371-86.935-47.107-122.263-82.435c-35.328-35.328-63.064-76.464-82.435-122.263
			c-20.052-47.41-30.22-97.779-30.22-149.71C1169.521,593.293,1179.688,542.923,1199.741,495.514z"/>
		<path d="M1554.149,680.23c11.344,0,21.423-5.401,27.82-13.766l81.083,18.553c1.088,0.249,2.176,0.369,3.247,0.369
			c6.61,0,12.584-4.551,14.121-11.268c1.786-7.806-3.094-15.582-10.9-17.368l-81.071-18.55
			c-2.259-11.086-9.762-20.258-19.801-24.835V412.257c0-8.008-6.492-14.499-14.499-14.499s-14.499,6.492-14.499,14.499v201.107
			c-12.095,5.513-20.507,17.701-20.507,31.86C1519.143,664.557,1534.815,680.23,1554.149,680.23z"/>
		<path d="M1554.149,346.245c8.008,0,14.499-6.492,14.499-14.499v-15.702c0-8.008-6.492-14.499-14.499-14.499
			s-14.499,6.492-14.499,14.499v15.702C1539.649,339.754,1546.141,346.245,1554.149,346.245z"/>
		<path d="M1322.234,433.814c2.831,2.831,6.542,4.246,10.252,4.246s7.421-1.416,10.252-4.247c5.663-5.662,5.663-14.843,0-20.505
			l-11.104-11.103c-5.662-5.662-14.843-5.661-20.505,0c-5.663,5.662-5.663,14.843,0,20.505L1322.234,433.814z"/>
		<path d="M1224.969,659.723h15.703c8.008,0,14.499-6.492,14.499-14.499c0-8.008-6.491-14.499-14.499-14.499h-15.703
			c-8.008,0-14.499,6.492-14.499,14.499C1210.47,653.232,1216.961,659.723,1224.969,659.723z"/>
		<path d="M1321.383,892.488c3.71,0,7.421-1.416,10.252-4.246l11.104-11.103c5.663-5.662,5.663-14.843,0-20.505
			c-5.661-5.662-14.842-5.662-20.505,0l-11.104,11.103c-5.663,5.662-5.663,14.843,0,20.505
			C1313.962,891.073,1317.672,892.488,1321.383,892.488z"/>
		<path d="M1554.149,944.202c-8.008,0-14.499,6.492-14.499,14.499v15.702c0,8.008,6.492,14.499,14.499,14.499
			s14.499-6.492,14.499-14.499v-15.702C1568.648,950.694,1562.156,944.202,1554.149,944.202z"/>
		<path d="M1776.662,888.242c2.831,2.831,6.542,4.246,10.252,4.246s7.421-1.416,10.252-4.247c5.663-5.662,5.663-14.843,0-20.505
			l-11.104-11.103c-5.662-5.662-14.843-5.661-20.505,0c-5.663,5.662-5.663,14.843,0,20.505L1776.662,888.242z"/>
		<path d="M1867.626,659.723h15.703c8.008,0,14.499-6.492,14.499-14.499c0-8.008-6.492-14.499-14.499-14.499h-15.703
			c-8.008,0-14.499,6.492-14.499,14.499C1853.127,653.232,1859.618,659.723,1867.626,659.723z"/>
		<path d="M1775.81,438.061c3.71,0,7.421-1.416,10.252-4.246l11.104-11.103c5.663-5.662,5.663-14.843,0-20.505
			c-5.661-5.662-14.842-5.662-20.505,0l-11.104,11.103c-5.663,5.662-5.663,14.843,0,20.505
			C1768.389,436.645,1772.1,438.061,1775.81,438.061z"/>
	</g>
	<g>
		<path d="M938.329,1262.298c-37.982-37.983-82.215-67.804-131.472-88.638c-51.003-21.572-105.173-32.511-161.006-32.511
			c-55.833,0-110.003,10.938-161.006,32.511c-49.256,20.834-93.489,50.656-131.471,88.638
			c-37.982,37.982-67.804,82.215-88.637,131.471c-21.573,51.004-32.511,105.173-32.511,161.006
			c0,55.833,10.938,110.004,32.511,161.006c20.833,49.256,50.655,93.49,88.637,131.472c37.982,37.982,82.215,67.804,131.471,88.638
			c51.004,21.572,105.173,32.511,161.006,32.511c55.833,0,110.003-10.938,161.006-32.511c49.256-20.834,93.49-50.656,131.472-88.638
			c37.982-37.982,67.804-82.215,88.638-131.472c21.572-51.003,32.511-105.173,32.511-161.006
			c0-55.833-10.938-110.003-32.511-161.006C1006.133,1344.514,976.311,1300.28,938.329,1262.298z M1000.26,1704.485
			c-19.372,45.8-47.107,86.935-82.435,122.264s-76.464,63.064-122.264,82.435c-47.409,20.052-97.779,30.22-149.71,30.22
			s-102.3-10.167-149.71-30.22c-45.799-19.372-86.934-47.107-122.263-82.435c-35.328-35.328-63.063-76.464-82.434-122.264
			c-20.053-47.409-30.22-97.779-30.22-149.71c0-51.931,10.167-102.3,30.22-149.71c19.371-45.799,47.107-86.934,82.434-122.263
			c35.328-35.328,76.463-63.064,122.263-82.435c47.41-20.052,97.779-30.22,149.71-30.22s102.301,10.167,149.71,30.22
			c45.8,19.372,86.935,47.107,122.264,82.435s63.064,76.464,82.435,122.263c20.052,47.41,30.22,97.779,30.22,149.71
			C1030.479,1606.706,1020.312,1657.076,1000.26,1704.485z"/>
		<path d="M680.043,1547.272c-1.996-9.137-7.559-16.935-15.158-21.869l-0.071-54.197c0-168.016-9.434-246.68-18.962-246.68
			c-9.528,0-18.962,78.664-18.962,246.68l-0.071,54.197c-9.61,6.24-15.972,17.06-15.972,29.373
			c0,19.333,15.673,35.006,35.006,35.006c7.895,0,15.178-2.616,21.034-7.025c115.63,31.67,172.273,38.414,174.719,29.754
			C844.031,1603.924,793.131,1580.356,680.043,1547.272z"/>
	</g>
	<g>
		<path d="M1846.627,1262.298c-37.983-37.982-82.215-67.804-131.472-88.638c-51.003-21.572-105.173-32.511-161.006-32.511
			s-110.004,10.938-161.006,32.511c-49.256,20.834-93.489,50.656-131.472,88.638c-37.982,37.982-67.803,82.215-88.637,131.471
			c-21.572,51.004-32.511,105.173-32.511,161.006c0,55.833,10.938,110.004,32.511,161.006
			c20.834,49.256,50.655,93.49,88.637,131.472c37.983,37.982,82.215,67.804,131.472,88.638
			c51.003,21.572,105.173,32.511,161.006,32.511s110.004-10.938,161.006-32.511c49.256-20.834,93.489-50.656,131.472-88.638
			c37.982-37.982,67.803-82.215,88.637-131.472c21.572-51.003,32.511-105.173,32.511-161.006
			c0-55.833-10.939-110.003-32.511-161.006C1914.43,1344.514,1884.608,1300.28,1846.627,1262.298z M1908.557,1704.485
			c-19.372,45.8-47.107,86.935-82.435,122.264c-35.327,35.328-76.463,63.064-122.263,82.435
			c-47.409,20.052-97.779,30.22-149.71,30.22c-51.931,0-102.301-10.167-149.71-30.22c-45.8-19.372-86.935-47.107-122.263-82.435
			c-35.328-35.328-63.064-76.464-82.435-122.264c-20.052-47.409-30.22-97.779-30.22-149.71c0-51.931,10.167-102.3,30.22-149.71
			c19.372-45.799,47.107-86.934,82.435-122.263c35.327-35.328,76.463-63.064,122.263-82.435
			c47.409-20.052,97.779-30.22,149.71-30.22c51.931,0,102.301,10.167,149.71,30.22c45.8,19.372,86.935,47.107,122.263,82.435
			c35.328,35.328,63.064,76.464,82.435,122.263c20.052,47.41,30.22,97.779,30.22,149.71
			C1938.776,1606.706,1928.609,1657.076,1908.557,1704.485z"/>
		<path d="M1588.34,1547.272c-1.996-9.137-7.559-16.935-15.158-21.869l-0.071-54.197c0-156.834-9.434-216.586-18.962-216.586
			c-9.529,0-18.963,59.752-18.963,216.586l-0.071,54.197c-9.61,6.24-15.972,17.06-15.972,29.373
			c0,19.333,15.673,35.006,35.006,35.006c7.895,0,15.178-2.616,21.034-7.025c115.63,31.67,172.273,38.414,174.719,29.754
			C1752.328,1603.924,1701.428,1580.356,1588.34,1547.272z"/>
		
			<ellipse transform="matrix(0.5257 -0.8507 0.8507 0.5257 -296.2803 1898.1766)" cx="1554.149" cy="1214.793" rx="16.74" ry="16.74"/>
		<path d="M1301.907,1302.535c-6.537,6.537-6.537,17.137,0,23.674c6.537,6.537,17.136,6.537,23.674,0
			c6.537-6.537,6.537-17.136,0-23.674C1319.044,1295.997,1308.445,1295.997,1301.907,1302.535z"/>
		<ellipse transform="matrix(0.8507 -0.5257 0.5257 0.8507 -636.06 870.5308)" cx="1214.166" cy="1554.776" rx="16.74" ry="16.74"/>
		<path d="M1301.907,1783.343c-6.537,6.537-6.537,17.136,0,23.674c6.537,6.537,17.136,6.537,23.674,0
			c6.537-6.537,6.537-17.137,0-23.674C1319.044,1776.806,1308.445,1776.806,1301.907,1783.343z"/>
		
			<ellipse transform="matrix(0.9925 -0.1222 0.1222 0.9925 -219.8647 204.0886)" cx="1554.149" cy="1894.759" rx="16.74" ry="16.74"/>
		<circle cx="1794.553" cy="1795.18" r="16.74"/>
		
			<ellipse transform="matrix(0.9571 -0.2898 0.2898 0.9571 -369.2758 615.6008)" cx="1894.131" cy="1554.776" rx="16.74" ry="16.74"/>
		<circle cx="1794.553" cy="1314.372" r="16.74"/>
	</g>
</g>
</svg>
