<?xml version="1.0" encoding="utf-8"?>
<!-- Generator: Adobe Illustrator 27.5.0, SVG Export Plug-In . SVG Version: 6.00 Build 0)  -->
<svg version="1.1" xmlns="http://www.w3.org/2000/svg" xmlns:xlink="http://www.w3.org/1999/xlink" x="0px" y="0px"
	 viewBox="0 0 2200 2200" style="enable-background:new 0 0 2200 2200;" xml:space="preserve">
<g id="background">
	<rect style="fill:#FFFFFF;" width="2200" height="2200"/>
</g>
<g id="Objects">
	<g>
		<g>
			<circle style="fill:#FFFFFF;" cx="1100" cy="1033.861" r="752.391"/>
			<g>
				<path d="M1819.61,729.853c-39.338-93.004-95.646-176.524-167.363-248.24c-71.715-71.716-155.236-128.024-248.239-167.362
					c-96.304-40.733-198.587-61.387-304.009-61.387s-207.705,20.654-304.009,61.387c-93.003,39.337-176.524,95.646-248.24,167.362
					c-71.715,71.716-128.024,155.236-167.362,248.24c-40.733,96.304-61.387,198.587-61.387,304.008s20.654,207.705,61.387,304.009
					c39.337,93.003,95.646,176.524,167.362,248.239c71.716,71.716,155.237,128.025,248.24,167.363
					c96.304,40.733,198.587,61.386,304.009,61.386s207.705-20.653,304.009-61.386c93.003-39.338,176.524-95.646,248.239-167.363
					c71.716-71.715,128.025-155.236,167.363-248.239c40.733-96.304,61.386-198.587,61.386-304.009S1860.344,826.157,1819.61,729.853
					z M1766.003,1315.195c-36.403,86.067-88.522,163.368-154.912,229.757s-143.69,118.509-229.757,154.912
					c-89.09,37.683-183.744,56.789-281.334,56.789s-192.244-19.106-281.334-56.789c-86.067-36.403-163.368-88.522-229.757-154.912
					s-118.51-143.69-154.912-229.757c-37.682-89.09-56.789-183.744-56.789-281.334c0-97.589,19.107-192.243,56.789-281.334
					C470.4,666.461,522.52,589.16,588.909,522.77c66.389-66.39,143.69-118.51,229.757-154.912
					c89.09-37.682,183.744-56.789,281.334-56.789s192.244,19.107,281.334,56.789c86.067,36.402,163.368,88.522,229.757,154.912
					c66.389,66.389,118.509,143.691,154.912,229.757c37.683,89.091,56.789,183.745,56.789,281.334
					C1822.792,1131.45,1803.686,1226.105,1766.003,1315.195z"/>
				<path d="M1100,499.49c8.036,0,14.551-6.515,14.551-14.551V392.78c0-8.036-6.515-14.551-14.551-14.551
					s-14.551,6.515-14.551,14.551v92.158C1085.449,492.975,1091.964,499.49,1100,499.49z"/>
				<path d="M1383.63,1156.567l-269.079-131.782V580.549c0-8.036-6.515-14.551-14.551-14.551s-14.551,6.515-14.551,14.551v453.312
					c0,5.554,3.162,10.625,8.151,13.068l277.23,135.774c2.06,1.009,4.24,1.487,6.39,1.486c5.38,0,10.552-2.996,13.078-8.154
					C1393.833,1168.818,1390.847,1160.102,1383.63,1156.567z"/>
				<path d="M867.139,446.333c-2.051-4.95-7.725-7.3-12.676-5.25c-4.95,2.05-7.3,7.725-5.25,12.675l21.997,53.104
					c1.548,3.736,5.16,5.991,8.967,5.991c1.237,0,2.494-0.238,3.709-0.741c4.95-2.05,7.3-7.725,5.25-12.675L867.139,446.333z"/>
				<path d="M573.001,805.071l-53.104-21.997c-4.949-2.049-10.625,0.3-12.676,5.25c-2.05,4.949,0.3,10.625,5.25,12.675
					l53.104,21.997c1.214,0.503,2.472,0.741,3.709,0.741c3.806,0,7.419-2.255,8.967-5.991
					C580.301,812.796,577.95,807.121,573.001,805.071z"/>
				<path d="M565.575,1244.726l-53.104,21.997c-4.95,2.05-7.3,7.725-5.25,12.675c1.548,3.735,5.16,5.991,8.967,5.991
					c1.237,0,2.494-0.239,3.709-0.742l53.104-21.996c4.95-2.051,7.3-7.726,5.25-12.676
					C576.2,1245.027,570.526,1242.679,565.575,1244.726z"/>
				<path d="M883.885,1555.61c-4.95-2.046-10.625,0.301-12.676,5.25l-21.996,53.104c-2.051,4.95,0.299,10.625,5.249,12.676
					c1.214,0.502,2.472,0.741,3.709,0.741c3.806,0,7.419-2.256,8.966-5.991l21.997-53.104
					C891.185,1563.336,888.835,1557.661,883.885,1555.61z"/>
				<path d="M1328.791,1560.861c-2.051-4.949-7.725-7.297-12.676-5.25c-4.95,2.051-7.3,7.726-5.25,12.676l21.998,53.104
					c1.547,3.735,5.159,5.991,8.966,5.991c1.237,0,2.494-0.239,3.709-0.741c4.95-2.051,7.3-7.726,5.249-12.676L1328.791,1560.861z"
					/>
				<path d="M1687.529,1266.724l-53.104-21.997c-4.951-2.046-10.625,0.301-12.676,5.25c-2.05,4.95,0.3,10.625,5.25,12.676
					l53.104,21.996c1.214,0.503,2.472,0.742,3.709,0.742c3.807,0,7.419-2.256,8.967-5.991
					C1694.829,1274.448,1692.479,1268.774,1687.529,1266.724z"/>
				<path d="M1630.716,823.736c1.237,0,2.494-0.238,3.709-0.741l53.104-21.997c4.95-2.05,7.3-7.725,5.25-12.675
					c-2.051-4.95-7.725-7.3-12.676-5.25L1627,805.071c-4.95,2.05-7.3,7.725-5.25,12.675
					C1623.298,821.482,1626.91,823.736,1630.716,823.736z"/>
				<path d="M1316.115,512.112c1.214,0.503,2.472,0.741,3.709,0.741c3.807,0,7.419-2.255,8.967-5.991l21.997-53.104
					c2.05-4.949-0.3-10.625-5.25-12.675c-4.949-2.05-10.625,0.3-12.676,5.25l-21.997,53.104
					C1308.815,504.386,1311.166,510.061,1316.115,512.112z"/>
				<path d="M656.977,570.259c-5.681-5.683-14.895-5.683-20.578,0c-5.683,5.682-5.683,14.896,0,20.578l65.165,65.166
					c2.841,2.842,6.565,4.262,10.289,4.262c3.723,0,7.448-1.421,10.289-4.262c5.683-5.682,5.683-14.896,0-20.578L656.977,570.259z"
					/>
				<path d="M565.629,1033.861c0-8.036-6.515-14.551-14.551-14.551H458.92c-8.036,0-14.551,6.515-14.551,14.551
					s6.515,14.551,14.551,14.551h92.158C559.114,1048.412,565.629,1041.897,565.629,1033.861z"/>
				<path d="M701.565,1411.718l-65.165,65.165c-5.683,5.682-5.683,14.896,0,20.578c2.841,2.841,6.565,4.262,10.289,4.262
					c3.724,0,7.448-1.421,10.289-4.262l65.165-65.165c5.683-5.682,5.683-14.896,0-20.578
					C716.461,1406.036,707.247,1406.036,701.565,1411.718z"/>
				<path d="M1100,1568.232c-8.036,0-14.551,6.515-14.551,14.551v92.158c0,8.036,6.515,14.551,14.551,14.551
					s14.551-6.515,14.551-14.551v-92.158C1114.552,1574.747,1108.037,1568.232,1100,1568.232z"/>
				<path d="M1498.436,1411.718c-5.682-5.682-14.896-5.682-20.578,0c-5.683,5.682-5.683,14.896,0,20.578l65.165,65.165
					c2.841,2.841,6.565,4.262,10.289,4.262s7.448-1.421,10.289-4.262c5.683-5.682,5.683-14.896,0-20.578L1498.436,1411.718z"/>
				<path d="M1741.081,1019.31h-92.158c-8.036,0-14.551,6.515-14.551,14.551s6.515,14.551,14.551,14.551h92.158
					c8.036,0,14.551-6.515,14.551-14.551S1749.117,1019.31,1741.081,1019.31z"/>
				<path d="M1543.023,570.259l-65.165,65.166c-5.683,5.683-5.683,14.896,0,20.578c2.841,2.842,6.565,4.262,10.289,4.262
					c3.724,0,7.448-1.421,10.289-4.262l65.165-65.166c5.683-5.683,5.683-14.896,0-20.578
					C1557.919,564.576,1548.705,564.576,1543.023,570.259z"/>
			</g>
		</g>
		<ellipse style="fill:#D8D8D8;" cx="1100" cy="1914.529" rx="574.859" ry="32.607"/>
	</g>
</g>
</svg>
